<?xml version="1.0" standalone="no"?>
<!DOCTYPE svg PUBLIC "-//W3C//DTD SVG 20010904//EN"
 "http://www.w3.org/TR/2001/REC-SVG-20010904/DTD/svg10.dtd">
<svg version="1.0" xmlns="http://www.w3.org/2000/svg"
 width="1024.000000pt" height="1024.000000pt" viewBox="0 0 1024.000000 1024.000000"
 preserveAspectRatio="xMidYMid meet">

<g transform="translate(0.000000,1024.000000) scale(0.100000,-0.100000)"
fill="#000000" stroke="none">
<path d="M4905 9536 c-120 -39 -198 -108 -253 -224 -35 -73 -37 -82 -36 -177
0 -86 4 -110 29 -169 39 -94 114 -174 205 -217 l70 -34 0 -307 0 -307 -52 -5
c-29 -3 -105 -10 -168 -16 -236 -23 -567 -105 -788 -196 -204 -84 -460 -230
-622 -354 l-80 -60 0 329 0 329 198 4 c177 3 203 6 254 26 148 59 249 199 283
390 12 67 16 76 58 112 106 94 93 255 -27 325 -77 45 -204 28 -263 -36 -75
-81 -68 -204 15 -287 l43 -43 -16 -62 c-9 -34 -25 -81 -36 -104 -27 -56 -98
-119 -149 -133 -27 -7 -143 -10 -343 -8 -268 3 -306 5 -335 21 -46 25 -72 72
-72 131 0 71 -32 131 -89 168 -42 27 -52 29 -118 26 -62 -3 -77 -7 -110 -34
-59 -47 -85 -106 -81 -181 4 -71 21 -100 88 -151 41 -31 48 -33 110 -31 l67 4
52 -48 c57 -51 149 -87 222 -87 l39 0 0 -416 0 -417 -123 -126 c-123 -127
-304 -356 -378 -482 l-40 -67 -57 57 c-31 31 -189 187 -351 346 l-295 290 -7
53 c-12 83 -69 147 -142 159 -55 8 -104 -5 -143 -39 -48 -42 -66 -81 -66 -140
1 -108 85 -184 196 -176 l54 3 361 -356 c199 -196 361 -363 361 -371 0 -7 -16
-52 -35 -100 -19 -47 -48 -128 -64 -179 -16 -52 -32 -93 -35 -93 -4 1 -93 30
-199 64 -265 86 -293 107 -328 244 -11 43 -29 98 -41 122 -48 102 -165 197
-292 235 -115 35 -113 33 -119 79 -11 86 -94 151 -190 151 -111 0 -195 -74
-213 -189 -18 -115 95 -242 216 -242 27 0 124 42 134 58 6 10 85 -10 157 -40
85 -36 149 -127 149 -211 0 -84 44 -189 100 -235 40 -33 140 -75 281 -116 155
-45 285 -89 294 -97 2 -3 0 -21 -5 -40 -18 -59 -58 -303 -66 -393 l-7 -86
-473 0 c-445 0 -474 1 -474 18 0 36 -61 144 -108 191 -27 27 -78 64 -113 82
-58 30 -74 33 -169 37 -89 3 -113 1 -162 -18 -113 -42 -210 -140 -254 -255
-14 -37 -19 -76 -19 -151 0 -96 2 -103 38 -176 62 -126 177 -214 311 -239 180
-33 389 80 457 248 l21 53 468 0 468 0 6 -87 c11 -149 27 -285 43 -357 l15
-70 -29 -25 c-16 -14 -83 -71 -148 -126 l-119 -100 -91 0 c-85 0 -94 -2 -128
-28 -20 -15 -44 -41 -52 -57 -21 -40 -19 -125 2 -161 18 -30 17 -31 -19 -102
-44 -84 -107 -150 -198 -205 l-65 -39 -43 18 c-24 11 -58 19 -75 19 -67 -1
-153 -60 -176 -123 -28 -74 0 -174 64 -222 43 -33 127 -45 175 -25 39 16 98
82 105 117 4 16 8 38 11 50 3 15 24 30 69 52 83 38 176 111 220 172 31 41 81
140 98 191 3 9 25 23 48 30 54 16 106 67 115 113 5 31 27 54 136 148 71 62
132 113 136 114 4 2 22 -40 40 -92 42 -124 120 -299 179 -400 l46 -79 -125
-121 c-399 -386 -454 -435 -489 -435 -18 0 -52 -9 -75 -21 -121 -58 -119 -231
2 -290 110 -53 234 23 234 144 0 43 3 47 107 148 60 57 181 176 270 264 98 95
166 155 171 150 5 -6 42 -55 82 -110 83 -113 184 -234 289 -346 l71 -77 0
-379 0 -379 -70 -17 c-81 -22 -169 -75 -225 -139 -23 -25 -56 -50 -76 -57 -62
-20 -99 -74 -99 -144 0 -84 60 -140 152 -141 80 -2 133 53 146 152 10 72 28
96 102 136 l49 27 323 -3 c305 -3 325 -4 363 -24 61 -32 96 -89 102 -166 l5
-64 -46 -48 c-55 -56 -67 -82 -68 -148 -2 -63 34 -131 90 -172 39 -27 53 -31
120 -34 69 -3 81 -1 117 23 69 45 90 86 90 175 0 69 -3 80 -28 114 -16 20 -44
47 -63 59 -33 22 -33 23 -33 94 1 84 -12 129 -56 198 -41 64 -83 100 -165 139
l-65 31 -227 3 -228 4 0 299 0 300 63 -45 c302 -220 740 -404 1107 -465 150
-25 308 -41 399 -41 36 0 83 -3 104 -6 l37 -7 0 -229 c0 -209 -2 -229 -17
-234 -10 -3 -50 -21 -90 -40 -123 -59 -202 -169 -223 -312 -30 -193 62 -366
238 -450 63 -30 87 -36 167 -40 119 -6 206 18 291 81 69 50 105 95 142 175 24
51 27 68 27 172 0 104 -3 120 -27 173 -15 32 -41 76 -58 97 -41 52 -137 115
-200 131 l-50 13 0 1053 0 1053 63 -67 c35 -38 148 -162 252 -278 103 -115
258 -289 345 -385 87 -96 231 -258 321 -361 176 -199 518 -578 606 -671 l54
-58 641 0 640 0 -18 28 c-19 28 -91 112 -363 421 -329 374 -821 926 -1062
1192 -63 70 -238 263 -389 430 -373 413 -414 459 -404 459 5 0 470 0 1034 0
564 0 1030 4 1037 8 30 19 63 169 63 289 l0 43 488 0 488 0 24 -57 c30 -73
125 -170 201 -206 163 -76 345 -48 474 74 91 86 135 187 135 310 0 118 -71
262 -163 332 -127 97 -306 117 -441 51 -105 -51 -186 -142 -222 -248 l-16 -46
-484 0 -484 0 0 127 c0 83 -6 149 -16 191 -16 62 -15 65 3 91 32 42 101 70
250 100 161 33 264 79 308 137 38 50 73 131 80 189 22 166 65 213 246 273 84
28 84 28 119 9 77 -40 188 2 230 87 24 50 26 103 5 154 -32 76 -86 112 -166
112 -95 0 -179 -74 -179 -159 0 -27 -4 -31 -42 -41 -24 -6 -67 -20 -96 -31
-188 -68 -264 -150 -311 -331 -25 -96 -43 -131 -83 -161 -41 -31 -70 -40 -240
-76 -145 -32 -193 -51 -275 -112 -36 -27 -59 -55 -78 -94 l-27 -55 -291 0
c-160 0 -288 2 -286 3 144 119 334 294 1098 1012 123 116 229 213 236 217 6 4
28 2 49 -4 68 -21 162 20 198 87 22 39 26 87 13 137 -51 198 -319 176 -350
-28 -5 -36 -15 -51 -60 -91 -29 -26 -158 -147 -287 -269 -128 -121 -352 -331
-498 -466 -146 -134 -350 -324 -455 -421 l-190 -176 -857 -1 -858 0 0 665 0
665 60 0 c62 0 228 -22 309 -41 433 -103 767 -319 1148 -743 l80 -89 149 119
c188 150 575 462 593 479 11 11 8 21 -25 62 -82 101 -306 343 -388 418 l-86
77 0 363 0 363 98 4 c101 4 133 15 201 66 27 20 46 25 91 26 46 1 64 6 93 29
50 38 69 69 74 120 9 89 -62 167 -154 167 -86 0 -134 -36 -158 -116 -18 -63
-58 -100 -118 -109 -23 -4 -193 -5 -377 -3 -332 3 -335 3 -377 27 -52 30 -96
89 -121 167 -33 98 -32 116 10 153 98 85 87 254 -21 322 -37 24 -56 29 -106
29 -147 0 -238 -110 -211 -255 7 -34 59 -98 100 -120 13 -8 21 -32 31 -96 23
-155 104 -285 219 -353 78 -45 143 -56 343 -56 l183 0 0 -275 c0 -151 -3 -275
-7 -275 -3 0 -20 10 -37 23 -109 82 -373 223 -542 291 -265 105 -575 174 -896
198 l-158 12 0 300 0 301 53 18 c178 62 287 216 287 408 0 167 -91 308 -248
382 -60 29 -77 32 -172 34 -66 2 -120 -2 -145 -11z m243 -253 c58 -47 82 -89
82 -144 0 -61 -13 -96 -53 -137 -43 -46 -78 -62 -130 -62 -128 0 -220 118
-187 239 33 125 191 182 288 104z m-42 -1649 c65 -31 103 -108 89 -180 -10
-58 -77 -120 -139 -129 -116 -18 -206 54 -206 162 1 117 145 200 256 147z
m-188 -1198 l-3 -677 -68 -24 c-133 -46 -230 -146 -278 -287 -18 -53 -20 -79
-17 -163 4 -86 9 -109 36 -166 52 -109 163 -201 276 -230 l46 -11 0 -729 c0
-657 -2 -729 -16 -729 -66 0 -280 26 -380 45 -330 66 -647 239 -899 490 -326
324 -502 704 -547 1178 l-4 37 288 0 c276 0 288 -1 298 -20 6 -11 31 -32 56
-46 94 -55 220 -25 280 65 31 47 42 132 24 185 -26 81 -113 145 -196 146 -57
0 -139 -43 -170 -90 l-25 -37 -276 1 c-211 1 -277 4 -281 14 -6 19 27 215 55
327 133 532 553 1016 1079 1244 125 54 296 107 427 132 118 23 277 39 290 29
4 -3 6 -311 5 -684z m-4107 -966 c49 -14 104 -71 119 -125 25 -90 -9 -176 -87
-222 -104 -61 -231 -10 -263 105 -43 156 79 284 231 242z m8577 -5 c47 -20 79
-50 103 -97 69 -134 -59 -306 -199 -269 -139 38 -194 209 -102 315 56 63 125
81 198 51z m-6730 -24 c46 -23 67 -46 87 -94 27 -64 13 -150 -33 -200 -51 -57
-145 -72 -220 -36 -130 63 -135 253 -8 330 41 25 125 25 174 0z m2476 -3678
c63 -44 88 -95 84 -169 -10 -174 -210 -251 -330 -127 -44 45 -58 79 -58 138 0
55 14 92 48 129 68 72 177 84 256 29z"/>
<path d="M4423 6645 c-38 -16 -73 -68 -73 -108 0 -42 25 -93 55 -113 15 -10
46 -17 70 -17 75 0 128 52 128 127 0 51 -23 89 -68 110 -40 19 -70 20 -112 1z"/>
<path d="M3925 6113 c-60 -16 -95 -67 -95 -139 0 -40 5 -51 38 -84 49 -49 101
-61 151 -34 75 40 103 133 61 201 -31 52 -88 72 -155 56z"/>
<path d="M3934 4636 c-51 -22 -74 -61 -74 -122 0 -68 32 -108 101 -125 41 -11
51 -10 85 7 49 25 88 94 78 139 -19 91 -106 137 -190 101z"/>
<path d="M4419 4095 c-33 -18 -53 -64 -44 -104 16 -72 112 -96 166 -42 81 82
-19 202 -122 146z"/>
<path d="M1929 8180 c-97 -29 -157 -145 -129 -250 23 -85 123 -152 203 -136
28 6 39 -3 144 -107 98 -99 113 -118 113 -146 0 -125 156 -202 255 -127 67 51
84 138 42 217 -28 53 -75 82 -137 85 -44 2 -50 7 -144 103 l-99 100 -1 75 c-1
67 -4 78 -32 113 -54 67 -139 97 -215 73z"/>
<path d="M7980 8121 c-19 -10 -48 -35 -64 -55 -25 -30 -31 -48 -34 -101 l-4
-65 -100 -92 c-90 -83 -104 -92 -151 -99 -157 -25 -202 -208 -74 -303 38 -28
126 -28 164 0 45 34 66 70 71 124 4 49 7 53 104 142 l98 92 68 1 c57 0 75 4
110 28 102 67 112 219 20 304 -49 46 -146 58 -208 24z"/>
<path d="M7702 4693 c-13 -3 -22 -11 -20 -18 2 -8 107 -121 233 -251 191 -197
232 -244 243 -280 13 -44 52 -83 103 -103 21 -7 28 -19 33 -52 21 -133 147
-285 278 -335 84 -32 93 -40 102 -92 13 -86 102 -161 191 -162 125 0 232 141
196 259 -40 135 -176 197 -299 135 l-51 -25 -45 20 c-113 49 -176 117 -212
224 -16 47 -15 50 1 59 24 14 45 69 45 118 0 114 -116 196 -223 158 l-38 -14
-182 183 -181 183 -75 -1 c-42 -1 -86 -4 -99 -6z"/>
<path d="M7203 4231 c-88 -55 -93 -174 -10 -235 19 -14 45 -21 80 -22 l52 -2
105 -110 c58 -61 207 -215 331 -344 l226 -233 5 -52 c6 -67 29 -100 85 -125
112 -50 233 24 233 142 0 87 -80 160 -174 160 -31 0 -60 27 -365 337 -290 293
-336 345 -360 398 -32 70 -66 97 -131 102 -33 3 -54 -1 -77 -16z"/>
<path d="M5646 3213 c-3 -3 -6 -219 -6 -478 0 -472 0 -472 22 -501 12 -16 55
-68 95 -116 l74 -87 -21 -40 c-22 -44 -27 -122 -9 -168 13 -34 55 -80 91 -99
35 -18 141 -18 176 0 148 77 129 313 -29 354 -26 6 -54 32 -116 106 l-83 98 0
384 0 383 -33 33 c-64 64 -154 137 -161 131z"/>
<path d="M2474 2800 c-79 -32 -85 -164 -9 -198 49 -23 94 -15 131 22 86 86 -9
222 -122 176z"/>
<path d="M6623 1915 c-57 -25 -71 -93 -29 -142 20 -23 32 -28 71 -28 39 0 51
5 71 28 65 76 -19 183 -113 142z"/>
</g>
</svg>
